<svg xmlns="http://www.w3.org/2000/svg" xmlns:svg="http://www.w3.org/2000/svg" id="Layer_1" data-name="Layer 1" viewBox="0.0 0.0 108.72073 57.760016" version="1.1" width="300" height="159.38087244263355">
  <defs id="defs35093">
    <style id="style1"><![CDATA[
        .cls-1 {
            display:inline;
          fill:#472c56;
          fill-opacity:1;
        }
        .cls-2 {
            fill:#472c56;
          fill-opacity:1;
          opacity:0.69;
        }
        .cls-bg {
            fill:#ffffff;
            fill-opacity:0.0;
        }
    ]]></style>
  </defs>
  <rect id="rectbg" width="200%" height="200%" class="cls-bg" x="-50%" y="-50%"/>
  <g id="g44008">
    <path d="m 14.440762,23.343841 c -0.08,0.08 -0.18,0.12 -0.32,0.12 h -8.58 c -0.1,0 -0.14,0.05 -0.14,0.14 v 2.7 c 0,0.1 0.05,0.14 0.14,0.14 h 5.31 c 0.13,0 0.24,0.04 0.32,0.11 0.08,0.08 0.12,0.18 0.12,0.32 v 3.73 c 0,0.13 -0.04,0.24 -0.12,0.32 -0.08,0.08 -0.18,0.12 -0.32,0.12 h -5.31 c -0.1,0 -0.14,0.05 -0.14,0.14 v 2.98 c 0,0.1 0.05,0.14 0.14,0.14 h 8.58 c 0.13,0 0.24,0.04 0.32,0.11 0.08,0.08 0.12,0.18 0.12,0.32 v 3.76 c 0,0.13 -0.04,0.24 -0.12,0.32 -0.08,0.08 -0.18,0.11 -0.32,0.11 h -13.68 c -0.13,0 -0.24,-0.04 -0.32,-0.11 a 0.42,0.42 0 0 1 -0.12,-0.32 v -19.21 c 0,-0.13 0.04,-0.24 0.12,-0.32 0.08,-0.08 0.18,-0.11 0.32,-0.11 h 13.68 c 0.13,0 0.24,0.04 0.32,0.11 0.08,0.08 0.12,0.18 0.12,0.32 v 3.76 c 0,0.13 -0.04,0.24 -0.12,0.32 z" id="path35309" class="cls-1"/>
    <path d="m 103.44076,38.793841 a 0.42,0.42 0 0 1 -0.12,-0.32 v -19.21 c 0,-0.13 0.04,-0.24 0.12,-0.32 0.08,-0.08 0.18,-0.11 0.32,-0.11 h 4.53 c 0.13,0 0.24,0.04 0.32,0.11 0.08,0.08 0.11,0.18 0.11,0.32 v 19.21 c 0,0.13 -0.04,0.24 -0.11,0.32 -0.07,0.08 -0.18,0.11 -0.32,0.11 h -4.53 c -0.13,0 -0.24,-0.04 -0.32,-0.11" id="path35307" class="cls-1"/>
    <path d="m 88.01076,38.593841 -3.15,-7.28 c -0.04,-0.08 -0.1,-0.12 -0.17,-0.12 h -1.21 c -0.1,0 -0.14,0.05 -0.14,0.14 v 7.14 c 0,0.13 -0.04,0.24 -0.11,0.32 -0.07,0.08 -0.18,0.11 -0.32,0.11 h -4.53 c -0.13,0 -0.24,-0.04 -0.32,-0.11 a 0.42,0.42 0 0 1 -0.12,-0.32 v -19.21 c 0,-0.13 0.04,-0.24 0.12,-0.32 0.08,-0.08 0.18,-0.11 0.32,-0.11 h 8.69 c 1.3,0 2.44,0.27 3.43,0.8 0.98,0.54 1.75,1.29 2.29,2.25 0.54,0.97 0.82,2.08 0.82,3.34 0,1.26 -0.31,2.37 -0.93,3.31 -0.62,0.95 -1.48,1.64 -2.57,2.08 -0.1,0.04 -0.12,0.11 -0.09,0.2 l 3.64,7.57 c 0.04,0.12 0.06,0.18 0.06,0.2 0,0.1 -0.04,0.17 -0.12,0.23 -0.08,0.06 -0.17,0.09 -0.29,0.09 h -4.82 c -0.25,0 -0.41,-0.1 -0.49,-0.32 z m -4.68,-15 v 3.36 c 0,0.1 0.05,0.14 0.14,0.14 h 2.7 c 0.61,0 1.11,-0.17 1.49,-0.5 0.38,-0.33 0.57,-0.77 0.57,-1.31 0,-0.54 -0.19,-1 -0.57,-1.33 -0.38,-0.33 -0.88,-0.5 -1.49,-0.5 h -2.7 c -0.1,0 -0.14,0.05 -0.14,0.14" id="path35305" class="cls-1"/>
  </g>
  <g id="g44003">
    <path d="m 46.450762,27.35 21.63,6.04 v 22.66 c 0,0.37 -0.11,0.66 -0.32,0.88 -0.21,0.21 -0.51,0.32 -0.88,0.32 h -12.61 c -0.37,0 -0.66,-0.11 -0.88,-0.32 -0.21,-0.21 -0.32,-0.51 -0.32,-0.88 V 36.49 c 0,-0.27 -0.13,-0.4 -0.4,-0.4 h -12.45 c -0.27,0 -0.4,0.13 -0.4,0.4 v 19.56 c 0,0.37 -0.11,0.66 -0.32,0.88 -0.21,0.21 -0.51,0.32 -0.88,0.32 h -12.61 c -0.37,0 -0.67,-0.11 -0.88,-0.32 -0.21,-0.21 -0.32,-0.51 -0.32,-0.88 V 33.39 l 21.63,-6.04 z" class="cls-2" id="path35099"/>
    <path d="m 66.890762,57.75 h -12.61 c -0.51,0 -0.92,-0.16 -1.23,-0.46 -0.31,-0.31 -0.47,-0.73 -0.47,-1.24 V 36.59 h -12.25 v 19.46 c 0,0.51 -0.16,0.92 -0.46,1.23 -0.31,0.31 -0.73,0.47 -1.23,0.47 h -12.61 c -0.51,0 -0.92,-0.16 -1.23,-0.46 -0.31,-0.31 -0.47,-0.73 -0.47,-1.23 V 33.02 l 22.13,-6.18 0.13,0.04 22,6.14 v 23.04 c 0,0.51 -0.16,0.92 -0.46,1.23 -0.31,0.31 -0.73,0.47 -1.23,0.47 z m -26.67,-22.16 h 12.45 c 0.55,0 0.9,0.35 0.9,0.9 v 19.56 c 0,0.24 0.06,0.41 0.17,0.53 0.12,0.11 0.29,0.17 0.52,0.17 h 12.61 c 0.24,0 0.41,-0.06 0.53,-0.17 0.11,-0.12 0.17,-0.29 0.17,-0.52 V 33.78 l -21.13,-5.9 -21.13,5.9 v 22.28 c 0,0.24 0.06,0.41 0.17,0.53 0.11,0.11 0.29,0.17 0.52,0.17 h 12.61 c 0.24,0 0.41,-0.06 0.52,-0.17 0.12,-0.12 0.17,-0.29 0.17,-0.53 V 36.5 c 0,-0.55 0.35,-0.9 0.9,-0.9 z" class="cls-1" id="path35101"/>
    <path d="m 67.770762,0.81 c -0.21,-0.21 -0.51,-0.32 -0.88,-0.32 h -12.61 c -0.37,0 -0.67,0.11 -0.88,0.32 -0.21,0.21 -0.32,0.51 -0.32,0.88 v 20.28 c 0,0.27 -0.13,0.4 -0.4,0.4 h -12.45 c -0.27,0 -0.4,-0.13 -0.4,-0.4 V 1.69 c 0,-0.37 -0.11,-0.67 -0.32,-0.88 -0.21,-0.21 -0.51,-0.32 -0.88,-0.32 h -12.61 c -0.37,0 -0.67,0.11 -0.88,0.32 -0.21,0.21 -0.32,0.51 -0.32,0.88 v 31.7 l 21.63,-6.04 21.63,6.04 V 1.69 c 0,-0.37 -0.11,-0.67 -0.32,-0.88 z" class="cls-1" id="path35103"/>
    <path d="m 68.590762,34.05 -22.13,-6.17 -22.13,6.17 V 1.69 c 0,-0.51 0.16,-0.92 0.47,-1.23 0.31,-0.31 0.72,-0.46 1.23,-0.46 h 12.61 c 0.51,0 0.92,0.16 1.23,0.47 0.31,0.31 0.47,0.72 0.47,1.23 v 20.18 h 12.25 V 1.7 c 0,-0.51 0.16,-0.93 0.47,-1.23 0.31,-0.31 0.72,-0.46 1.23,-0.46 h 12.62 c 0.51,0 0.92,0.16 1.23,0.46 0.31,0.31 0.47,0.72 0.47,1.23 v 32.35 z m -22.14,-7.22 0.13,0.04 21,5.86 V 1.69 c 0,-0.24 -0.06,-0.41 -0.17,-0.52 -0.12,-0.12 -0.29,-0.17 -0.52,-0.17 h -12.62 c -0.24,0 -0.41,0.06 -0.52,0.17 -0.04,0.04 -0.17,0.17 -0.17,0.53 v 20.28 c 0,0.54 -0.36,0.9 -0.9,0.9 h -12.45 c -0.55,0 -0.9,-0.35 -0.9,-0.9 V 1.7 c 0,-0.24 -0.06,-0.41 -0.17,-0.52 -0.11,-0.11 -0.29,-0.17 -0.52,-0.17 h -12.61 c -0.24,0 -0.41,0.06 -0.52,0.17 -0.11,0.11 -0.17,0.29 -0.17,0.53 v 31.04 l 21.13,-5.9 z" class="cls-1" id="path35105"/>
  </g>
</svg>
