<svg xmlns="http://www.w3.org/2000/svg" xmlns:svg="http://www.w3.org/2000/svg" id="Layer_1" data-name="Layer 1" viewBox="0 0 300 83.370003" version="1.1" width="300" height="83.370003">
  <defs id="defs32979">
    <style id="style1"><![CDATA[
        .cls-1 {
            display:inline;
          fill:#ffffff;
          fill-opacity:1;
        }
        .cls-2 {
            fill:#ffffff;
          fill-opacity:1;
          opacity:0.4;
        }
        .cls-bg {
            fill:#000000;
            fill-opacity:0.0;
        }
    ]]></style>
  </defs>
  <rect id="rectbg" width="100%" height="100%" class="cls-bg"/>
  <g id="g33818">
    <path d="M 0,0 H 300 V 2 H 0 Z" id="path33395" style="stroke-width:1.0" class="cls-1"/>
    <path d="m 0,81.37 h 300 v 2 H 0 Z" id="path33393" style="stroke-width:1.0" class="cls-1"/>
  </g>
  <g id="g33805">
    <path d="m 292.41,27.21 c 0,0 0.06,0.1 0.06,0.18 v 2.11 q 0,0.105 -0.06,0.18 c -0.06,0.075 -0.1,0.06 -0.18,0.06 h -2.69 c -0.05,0 -0.08,0.03 -0.08,0.08 v 8.29 c 0,0.08 -0.02,0.13 -0.06,0.18 -0.04,0.05 -0.1,0.06 -0.18,0.06 h -2.53 c -0.08,0 -0.13,-0.02 -0.18,-0.06 q -0.06,-0.06 -0.06,-0.18 v -8.29 c 0,-0.05 -0.03,-0.08 -0.08,-0.08 h -2.61 c -0.08,0 -0.13,-0.02 -0.18,-0.06 q -0.06,-0.06 -0.06,-0.18 v -2.11 q 0,-0.105 0.06,-0.18 0.06,-0.06 0.18,-0.06 h 8.46 q 0.105,0 0.18,0.06 z" id="path33391" class="cls-1"/>
    <path d="m 275.48,38.03 q -1.005,-0.435 -1.56,-1.26 c -0.555,-0.825 -0.55,-1.17 -0.55,-1.89 v -0.22 c 0,-0.08 0.02,-0.13 0.06,-0.18 q 0.06,-0.06 0.18,-0.06 h 2.48 q 0.105,0 0.18,0.06 0.06,0.06 0.06,0.18 v 0.1 c 0,0.3 0.16,0.56 0.47,0.79 0.31,0.23 0.73,0.34 1.26,0.34 0.39,0 0.68,-0.08 0.85,-0.25 0.17,-0.17 0.26,-0.35 0.26,-0.55 0,-0.23 -0.11,-0.41 -0.32,-0.53 -0.21,-0.12 -0.6,-0.26 -1.17,-0.43 L 277.22,34 c -1.06,-0.32 -1.94,-0.75 -2.66,-1.28 -0.71,-0.53 -1.07,-1.31 -1.07,-2.32 0,-0.67 0.18,-1.27 0.54,-1.78 0.36,-0.52 0.86,-0.92 1.5,-1.19 0.64,-0.27 1.35,-0.42 2.14,-0.42 0.83,0 1.59,0.16 2.26,0.46 0.68,0.31 1.21,0.75 1.6,1.31 0.39,0.56 0.58,1.21 0.58,1.94 v 0.14 q 0,0.105 -0.06,0.18 -0.06,0.06 -0.18,0.06 h -2.48 c -0.08,0 -0.13,-0.02 -0.18,-0.06 q -0.06,-0.06 -0.06,-0.18 v -0.02 c 0,-0.32 -0.14,-0.61 -0.43,-0.87 q -0.435,-0.39 -1.17,-0.39 -0.51,0 -0.81,0.21 c -0.3,0.21 -0.3,0.33 -0.3,0.58 0,0.19 0.07,0.35 0.22,0.49 0.14,0.13 0.37,0.26 0.66,0.38 0.3,0.12 0.76,0.28 1.38,0.47 0.09,0.03 0.46,0.15 1.13,0.34 0.67,0.2 1.22,0.55 1.67,1.07 0.45,0.52 0.67,1.14 0.67,1.88 0,0.74 -0.18,1.33 -0.54,1.85 -0.36,0.52 -0.87,0.92 -1.52,1.19 -0.65,0.27 -1.41,0.42 -2.27,0.42 -0.86,0 -1.68,-0.15 -2.35,-0.44 z" id="path33389" class="cls-1"/>
    <path d="m 265.11,37.98 c -0.67,-0.33 -1.18,-0.8 -1.54,-1.41 -0.36,-0.61 -0.54,-1.31 -0.54,-2.11 v -7.07 q 0,-0.105 0.06,-0.18 0.06,-0.06 0.18,-0.06 h 2.53 q 0.105,0 0.18,0.06 c 0.075,0.06 0.06,0.1 0.06,0.18 v 7.07 c 0,0.44 0.12,0.79 0.38,1.05 0.25,0.26 0.58,0.39 1,0.39 0.42,0 0.73,-0.13 0.98,-0.4 0.25,-0.27 0.38,-0.61 0.38,-1.04 v -7.07 q 0,-0.105 0.06,-0.18 0.06,-0.06 0.18,-0.06 h 2.53 q 0.105,0 0.18,0.06 0.06,0.06 0.06,0.18 v 7.07 c 0,0.8 -0.18,1.5 -0.54,2.11 -0.36,0.61 -0.87,1.08 -1.54,1.41 -0.66,0.33 -1.42,0.5 -2.29,0.5 -0.87,0 -1.63,-0.17 -2.3,-0.5 z" id="path33387" class="cls-1"/>
    <path d="m 258.56,38.14 -0.35,-1.25 c 0,0 -0.05,-0.06 -0.08,-0.06 h -3.39 c 0,0 -0.06,0.02 -0.08,0.06 l -0.35,1.25 q -0.045,0.21 -0.27,0.21 h -2.74 q -0.285,0 -0.21,-0.27 l 3.38,-10.74 c 0.04,-0.13 0.13,-0.19 0.27,-0.19 h 3.39 c 0.14,0 0.23,0.06 0.27,0.19 l 3.38,10.74 c 0,0 0.02,0.05 0.02,0.1 0,0.12 -0.08,0.18 -0.22,0.18 h -2.74 q -0.225,0 -0.27,-0.21 z m -3.14,-3.62 h 2 c 0.06,0 0.08,-0.03 0.06,-0.1 l -1.02,-3.58 c 0,0 -0.03,-0.05 -0.05,-0.05 -0.02,0 -0.04,0.02 -0.05,0.05 l -1.01,3.58 c -0.01,0.06 0.01,0.1 0.06,0.1 z" id="path33385" class="cls-1"/>
    <path d="m 243.33,37.96 c -0.67,-0.34 -1.18,-0.82 -1.55,-1.45 -0.37,-0.63 -0.55,-1.35 -0.55,-2.17 v -3.23 c 0,-0.81 0.18,-1.52 0.55,-2.14 0.37,-0.62 0.88,-1.1 1.55,-1.44 q 1.005,-0.51 2.31,-0.51 c 1.305,0 1.64,0.16 2.31,0.48 0.67,0.32 1.18,0.77 1.55,1.35 0.37,0.58 0.55,1.26 0.55,2.02 0,0.1 -0.08,0.15 -0.24,0.18 l -2.53,0.16 h -0.05 c -0.13,0 -0.19,-0.06 -0.19,-0.18 0,-0.44 -0.13,-0.79 -0.38,-1.05 q -0.39,-0.39 -1.02,-0.39 c -0.63,0 -0.77,0.13 -1.02,0.39 -0.26,0.26 -0.38,0.61 -0.38,1.05 v 3.44 c 0,0.43 0.13,0.77 0.38,1.03 0.25,0.26 0.6,0.39 1.02,0.39 0.42,0 0.77,-0.13 1.02,-0.39 0.25,-0.26 0.38,-0.61 0.38,-1.03 0,-0.06 0.02,-0.11 0.06,-0.14 q 0.06,-0.045 0.18,-0.03 l 2.53,0.13 c 0.16,0.01 0.24,0.06 0.24,0.16 0,0.77 -0.18,1.45 -0.55,2.03 -0.37,0.59 -0.89,1.04 -1.55,1.37 -0.67,0.33 -1.44,0.49 -2.31,0.49 -0.87,0 -1.65,-0.17 -2.31,-0.51 z" id="path33383" class="cls-1"/>
    <path d="m 232.79,38 c -0.68,-0.36 -1.2,-0.86 -1.58,-1.5 -0.37,-0.65 -0.56,-1.39 -0.56,-2.25 v -3.01 c 0,-0.83 0.19,-1.57 0.56,-2.21 0.37,-0.64 0.9,-1.14 1.58,-1.49 0.68,-0.35 1.46,-0.53 2.34,-0.53 0.88,0 1.68,0.18 2.36,0.53 0.68,0.35 1.2,0.85 1.58,1.49 0.37,0.64 0.56,1.38 0.56,2.21 v 3.01 c 0,0.85 -0.19,1.6 -0.56,2.25 -0.37,0.65 -0.9,1.15 -1.58,1.5 -0.68,0.36 -1.46,0.54 -2.36,0.54 -0.9,0 -1.67,-0.18 -2.34,-0.54 m 3.42,-2.48 c 0.27,-0.29 0.41,-0.68 0.41,-1.18 V 31.2 c 0,-0.49 -0.14,-0.88 -0.41,-1.18 -0.27,-0.29 -0.63,-0.44 -1.08,-0.44 -0.45,0 -0.79,0.15 -1.06,0.44 -0.27,0.29 -0.41,0.68 -0.41,1.18 v 3.14 c 0,0.49 0.14,0.88 0.41,1.18 0.27,0.29 0.63,0.44 1.06,0.44 0.43,0 0.81,-0.15 1.08,-0.44" id="path33381" class="cls-1"/>
    <path d="m 221.21,38.28 c 0,0 -0.06,-0.1 -0.06,-0.18 V 27.38 q 0,-0.105 0.06,-0.18 0.06,-0.06 0.18,-0.06 h 2.53 c 0.08,0 0.13,0.02 0.18,0.06 q 0.06,0.06 0.06,0.18 v 8.3 c 0,0.05 0.03,0.08 0.08,0.08 h 4.94 q 0.105,0 0.18,0.06 c 0.075,0.06 0.06,0.1 0.06,0.18 v 2.1 c 0,0.08 -0.02,0.13 -0.06,0.18 -0.04,0.05 -0.1,0.06 -0.18,0.06 h -7.79 c -0.08,0 -0.13,-0.02 -0.18,-0.06" id="path33379" class="cls-1"/>
    <path d="m 212.57,38 c -0.68,-0.36 -1.2,-0.86 -1.58,-1.5 -0.37,-0.65 -0.56,-1.39 -0.56,-2.25 v -3.01 c 0,-0.83 0.19,-1.57 0.56,-2.21 0.37,-0.64 0.9,-1.14 1.58,-1.49 0.68,-0.35 1.46,-0.53 2.34,-0.53 0.88,0 1.68,0.18 2.36,0.53 0.68,0.35 1.2,0.85 1.58,1.49 0.37,0.64 0.56,1.38 0.56,2.21 v 3.01 c 0,0.85 -0.19,1.6 -0.56,2.25 -0.37,0.65 -0.9,1.15 -1.58,1.5 -0.68,0.36 -1.46,0.54 -2.36,0.54 -0.9,0 -1.67,-0.18 -2.34,-0.54 m 3.42,-2.48 c 0.27,-0.29 0.41,-0.68 0.41,-1.18 V 31.2 c 0,-0.49 -0.14,-0.88 -0.41,-1.18 -0.27,-0.29 -0.63,-0.44 -1.08,-0.44 -0.45,0 -0.79,0.15 -1.06,0.44 -0.27,0.29 -0.41,0.68 -0.41,1.18 v 3.14 c 0,0.49 0.14,0.88 0.41,1.18 0.27,0.29 0.63,0.44 1.06,0.44 0.43,0 0.81,-0.15 1.08,-0.44" id="path33377" class="cls-1"/>
    <path d="m 205.88,27.21 c 0,0 0.1,-0.06 0.18,-0.06 h 2.53 c 0.08,0 0.13,0.02 0.18,0.06 q 0.06,0.06 0.06,0.18 v 10.72 c 0,0.08 -0.02,0.13 -0.06,0.18 -0.04,0.05 -0.1,0.06 -0.18,0.06 h -2.53 c -0.08,0 -0.13,-0.02 -0.18,-0.06 -0.05,-0.04 -0.06,-0.1 -0.06,-0.18 v -4.06 c 0,-0.05 -0.03,-0.08 -0.08,-0.08 h -2.5 c -0.05,0 -0.08,0.03 -0.08,0.08 v 4.06 c 0,0.08 -0.02,0.13 -0.06,0.18 -0.04,0.05 -0.1,0.06 -0.18,0.06 h -2.53 c -0.08,0 -0.13,-0.02 -0.18,-0.06 q -0.06,-0.06 -0.06,-0.18 V 27.39 q 0,-0.105 0.06,-0.18 0.06,-0.06 0.18,-0.06 h 2.53 c 0.08,0 0.13,0.02 0.18,0.06 q 0.06,0.06 0.06,0.18 v 3.92 c 0,0.05 0.03,0.08 0.08,0.08 h 2.5 c 0.05,0 0.08,-0.03 0.08,-0.08 v -3.92 q 0,-0.105 0.06,-0.18" id="path33375" class="cls-1"/>
    <path d="m 194.77,30.81 q 0.78,0.765 0.78,2.1 v 5.25 c 0,0.05 -0.02,0.1 -0.06,0.14 -0.04,0.04 -0.08,0.06 -0.14,0.06 h -1.47 c -0.05,0 -0.1,-0.02 -0.14,-0.06 -0.04,-0.04 -0.06,-0.08 -0.06,-0.14 V 33.3 c 0,-0.49 -0.14,-0.89 -0.42,-1.19 -0.28,-0.3 -0.65,-0.46 -1.1,-0.46 -0.45,0 -0.83,0.15 -1.11,0.45 -0.28,0.3 -0.42,0.69 -0.42,1.18 v 4.88 c 0,0.05 -0.02,0.1 -0.06,0.14 -0.04,0.04 -0.08,0.06 -0.14,0.06 h -1.47 c -0.05,0 -0.1,-0.02 -0.14,-0.06 -0.04,-0.04 -0.06,-0.08 -0.06,-0.14 v -7.79 c 0,-0.05 0.02,-0.1 0.06,-0.14 0.04,-0.04 0.08,-0.06 0.14,-0.06 h 1.47 c 0.05,0 0.1,0.02 0.14,0.06 0.04,0.04 0.06,0.08 0.06,0.14 v 0.51 c 0,0 0.01,0.05 0.03,0.06 0.02,0.01 0.04,0 0.05,-0.03 0.44,-0.58 1.1,-0.86 1.98,-0.86 0.88,0 1.55,0.26 2.07,0.77 z" id="path33373" class="cls-1"/>
    <path d="m 185.41,30.39 c 0.51,0.24 0.91,0.56 1.18,0.97 0.28,0.41 0.42,0.88 0.42,1.4 v 5.39 c 0,0.05 -0.02,0.1 -0.06,0.14 -0.04,0.04 -0.08,0.06 -0.14,0.06 h -1.47 c -0.05,0 -0.1,-0.02 -0.14,-0.06 a 0.18,0.18 0 0 1 -0.06,-0.14 v -0.51 c 0,0 -0.01,-0.05 -0.03,-0.06 -0.02,0 -0.04,0 -0.06,0.02 -0.52,0.58 -1.28,0.86 -2.27,0.86 -0.8,0 -1.46,-0.2 -1.98,-0.61 -0.52,-0.4 -0.78,-1.01 -0.78,-1.81 0,-0.8 0.29,-1.48 0.87,-1.94 0.58,-0.46 1.4,-0.7 2.46,-0.7 h 1.71 c 0.05,0 0.08,-0.03 0.08,-0.08 v -0.38 c 0,-0.42 -0.12,-0.74 -0.37,-0.97 -0.25,-0.23 -0.61,-0.34 -1.1,-0.34 -0.41,0 -0.73,0.07 -0.98,0.22 -0.25,0.14 -0.41,0.34 -0.47,0.6 -0.03,0.13 -0.11,0.18 -0.22,0.16 l -1.55,-0.19 a 0.35,0.35 0 0 1 -0.14,-0.06 c -0.04,-0.03 -0.05,-0.06 -0.04,-0.1 0.08,-0.65 0.43,-1.18 1.05,-1.6 0.62,-0.42 1.38,-0.62 2.31,-0.62 0.67,0 1.26,0.12 1.78,0.35 m -0.82,6.19 c 0.37,-0.28 0.56,-0.63 0.56,-1.06 v -0.75 c 0,-0.05 -0.03,-0.08 -0.08,-0.08 h -1.34 c -0.57,0 -1.01,0.11 -1.34,0.32 -0.33,0.21 -0.49,0.52 -0.49,0.91 0,0.34 0.12,0.61 0.38,0.79 0.26,0.18 0.57,0.28 0.97,0.28 0.52,0 0.97,-0.14 1.34,-0.42 z" id="path33371" class="cls-1"/>
    <path d="m 178.97,34.23 -0.02,0.5 c 0,0.13 -0.06,0.19 -0.19,0.19 h -5.01 c -0.05,0 -0.08,0.03 -0.08,0.08 0.03,0.35 0.08,0.59 0.14,0.72 0.26,0.77 0.88,1.16 1.87,1.17 0.73,0 1.3,-0.3 1.73,-0.9 0.04,-0.06 0.1,-0.1 0.16,-0.1 0.04,0 0.08,0.02 0.11,0.05 l 0.99,0.82 c 0.1,0.08 0.11,0.16 0.05,0.26 -0.33,0.47 -0.77,0.83 -1.32,1.09 -0.55,0.26 -1.16,0.38 -1.83,0.38 -0.83,0 -1.54,-0.19 -2.12,-0.56 -0.58,-0.37 -1.01,-0.9 -1.27,-1.57 -0.25,-0.58 -0.37,-1.38 -0.37,-2.4 0,-0.62 0.06,-1.12 0.19,-1.5 0.21,-0.75 0.62,-1.34 1.21,-1.77 0.59,-0.43 1.3,-0.65 2.14,-0.65 2.1,0 3.29,1.1 3.55,3.3 q 0.06,0.405 0.06,0.9 z m -4.6,-2.29 c -0.26,0.2 -0.45,0.47 -0.55,0.82 -0.06,0.18 -0.11,0.42 -0.13,0.7 -0.02,0.05 0,0.08 0.06,0.08 H 177 c 0.05,0 0.08,-0.03 0.08,-0.08 -0.02,-0.27 -0.05,-0.47 -0.1,-0.61 q -0.15,-0.57 -0.57,-0.9 c -0.28,-0.21 -0.64,-0.32 -1.06,-0.32 -0.39,0 -0.72,0.1 -0.98,0.3 z" id="path33369" class="cls-1"/>
    <path d="m 170.37,34.28 q 0,1.14 -0.27,1.95 c -0.23,0.7 -0.61,1.25 -1.13,1.65 -0.52,0.4 -1.17,0.59 -1.96,0.59 -0.79,0 -1.37,-0.27 -1.82,-0.82 -0.02,-0.02 -0.04,-0.03 -0.06,-0.02 -0.02,0.01 -0.03,0.03 -0.03,0.06 v 3.47 c 0,0.05 -0.02,0.1 -0.06,0.14 -0.04,0.04 -0.08,0.06 -0.14,0.06 h -1.47 c -0.05,0 -0.1,-0.02 -0.14,-0.06 -0.04,-0.04 -0.06,-0.08 -0.06,-0.14 V 30.34 c 0,-0.05 0.02,-0.1 0.06,-0.14 0.04,-0.04 0.08,-0.06 0.14,-0.06 h 1.47 c 0.05,0 0.1,0.02 0.14,0.06 0.04,0.04 0.06,0.08 0.06,0.14 v 0.48 c 0,0 0.01,0.05 0.03,0.06 q 0.03,0.015 0.06,-0.03 c 0.47,-0.55 1.08,-0.83 1.84,-0.83 0.76,0 1.4,0.2 1.92,0.59 0.52,0.39 0.9,0.94 1.14,1.65 0.19,0.54 0.29,1.21 0.29,2 z m -1.89,-0.03 c 0,-0.78 -0.13,-1.39 -0.38,-1.84 -0.3,-0.52 -0.75,-0.78 -1.36,-0.78 -0.55,0 -0.97,0.26 -1.25,0.77 -0.25,0.42 -0.37,1.04 -0.37,1.86 0,0.82 0.13,1.48 0.4,1.92 0.28,0.47 0.68,0.7 1.2,0.7 0.57,0 0.99,-0.22 1.28,-0.67 q 0.48,-0.735 0.48,-1.95 z" id="path33367" class="cls-1"/>
    <path d="m 155.64,37.83 c -0.6,-0.43 -1.03,-1.02 -1.27,-1.78 -0.18,-0.58 -0.27,-1.18 -0.27,-1.82 0,-0.68 0.08,-1.29 0.26,-1.82 0.25,-0.75 0.67,-1.33 1.28,-1.74 0.61,-0.41 1.34,-0.62 2.19,-0.62 0.81,0 1.51,0.21 2.1,0.62 0.59,0.41 1.01,0.99 1.26,1.73 0.19,0.51 0.29,1.12 0.29,1.82 0,0.7 -0.09,1.28 -0.27,1.82 -0.25,0.76 -0.67,1.35 -1.26,1.78 -0.6,0.43 -1.31,0.65 -2.13,0.65 -0.82,0 -1.57,-0.21 -2.17,-0.64 z m 3.18,-1.29 c 0.28,-0.22 0.49,-0.54 0.62,-0.94 0.11,-0.35 0.16,-0.8 0.16,-1.34 0,-0.58 -0.05,-1.02 -0.16,-1.34 -0.12,-0.41 -0.32,-0.72 -0.61,-0.94 -0.29,-0.22 -0.64,-0.33 -1.06,-0.33 -0.39,0 -0.74,0.11 -1.02,0.33 -0.28,0.22 -0.5,0.53 -0.62,0.94 -0.11,0.37 -0.16,0.82 -0.16,1.34 0,0.52 0.05,0.97 0.16,1.34 0.12,0.41 0.32,0.72 0.62,0.94 0.29,0.22 0.65,0.34 1.06,0.34 0.39,0 0.73,-0.11 1.02,-0.34 z" id="path33365" class="cls-1"/>
    <path d="m 153.26,30.28 c 0.08,0.04 0.12,0.12 0.1,0.24 l -0.27,1.44 c -0.01,0.13 -0.08,0.17 -0.22,0.11 a 1.9,1.9 0 0 0 -0.56,-0.08 c -0.14,0 -0.25,0 -0.32,0.02 -0.45,0.02 -0.82,0.18 -1.12,0.47 q -0.45,0.435 -0.45,1.14 v 4.53 c 0,0.05 -0.02,0.1 -0.06,0.14 -0.04,0.04 -0.08,0.06 -0.14,0.06 h -1.47 c -0.05,0 -0.1,-0.02 -0.14,-0.06 -0.04,-0.04 -0.06,-0.08 -0.06,-0.14 v -7.79 c 0,-0.05 0.02,-0.1 0.06,-0.14 0.04,-0.04 0.08,-0.06 0.14,-0.06 h 1.47 c 0.05,0 0.1,0.02 0.14,0.06 0.04,0.04 0.06,0.08 0.06,0.14 v 0.72 c 0,0 0,0.07 0.02,0.07 0.02,0 0.03,0 0.06,-0.04 0.45,-0.69 1.07,-1.04 1.87,-1.04 q 0.51,0 0.9,0.21 z" id="path33363" class="cls-1"/>
    <path d="m 144.87,30.22 c 0,0 0.08,-0.06 0.14,-0.06 h 1.46 c 0.05,0 0.1,0.02 0.14,0.06 0.04,0.04 0.06,0.08 0.06,0.14 v 7.79 c 0,0.05 -0.02,0.1 -0.06,0.14 -0.04,0.04 -0.08,0.06 -0.14,0.06 h -1.46 c -0.05,0 -0.1,-0.02 -0.14,-0.06 -0.04,-0.04 -0.06,-0.08 -0.06,-0.14 v -0.51 c 0,0 -0.01,-0.05 -0.03,-0.06 -0.02,-0.01 -0.04,0 -0.06,0.03 -0.44,0.57 -1.09,0.85 -1.97,0.85 -0.81,0 -1.49,-0.23 -2.04,-0.7 -0.55,-0.47 -0.82,-1.14 -0.82,-2 v -5.39 c 0,-0.05 0.02,-0.1 0.06,-0.14 0.04,-0.04 0.08,-0.06 0.14,-0.06 h 1.47 c 0.05,0 0.1,0.02 0.14,0.06 0.04,0.04 0.06,0.08 0.06,0.14 v 4.86 q 0,0.75 0.39,1.2 c 0.26,0.3 0.63,0.45 1.1,0.45 0.47,0 0.86,-0.15 1.15,-0.45 0.29,-0.3 0.43,-0.7 0.43,-1.2 v -4.86 c 0,-0.05 0.02,-0.1 0.06,-0.14 z" id="path33361" class="cls-1"/>
    <path d="m 138.29,28.69 c 0,0 -0.08,0.06 -0.14,0.06 h -5.46 c -0.05,0 -0.08,0.03 -0.08,0.08 v 2.99 c 0,0.05 0.03,0.08 0.08,0.08 h 3.66 c 0.05,0 0.1,0.02 0.14,0.06 0.04,0.04 0.06,0.08 0.06,0.14 v 1.22 c 0,0.05 -0.02,0.1 -0.06,0.14 -0.04,0.04 -0.08,0.06 -0.14,0.06 h -3.66 c -0.05,0 -0.08,0.03 -0.08,0.08 v 3.09 c 0,0.05 0.03,0.08 0.08,0.08 h 5.46 c 0.05,0 0.1,0.02 0.14,0.06 0.04,0.04 0.06,0.08 0.06,0.14 v 1.22 c 0,0.05 -0.02,0.1 -0.06,0.14 -0.04,0.04 -0.08,0.06 -0.14,0.06 h -7.2 c -0.05,0 -0.1,-0.02 -0.14,-0.06 a 0.18,0.18 0 0 1 -0.06,-0.14 V 27.37 c 0,-0.05 0.02,-0.1 0.06,-0.14 0.04,-0.04 0.08,-0.06 0.14,-0.06 h 7.2 c 0.05,0 0.1,0.02 0.14,0.06 0.04,0.04 0.06,0.08 0.06,0.14 v 1.22 c 0,0.05 -0.02,0.1 -0.06,0.14 z" id="path33359" class="cls-1"/>
    <path d="m 292.39,51.09 -0.02,0.5 c 0,0.13 -0.06,0.19 -0.19,0.19 h -5.01 c -0.05,0 -0.08,0.03 -0.08,0.08 0.03,0.35 0.08,0.59 0.14,0.72 0.26,0.77 0.88,1.16 1.87,1.17 0.73,0 1.3,-0.3 1.73,-0.9 0.04,-0.06 0.1,-0.1 0.16,-0.1 0.04,0 0.08,0.02 0.11,0.05 l 0.99,0.82 c 0.1,0.08 0.11,0.16 0.05,0.26 -0.33,0.47 -0.77,0.83 -1.32,1.09 -0.55,0.26 -1.16,0.38 -1.83,0.38 -0.83,0 -1.54,-0.19 -2.12,-0.56 -0.58,-0.37 -1.01,-0.9 -1.27,-1.57 -0.25,-0.58 -0.37,-1.38 -0.37,-2.4 0,-0.62 0.06,-1.12 0.19,-1.5 0.21,-0.75 0.62,-1.34 1.21,-1.77 0.59,-0.43 1.3,-0.65 2.14,-0.65 2.1,0 3.29,1.1 3.55,3.3 q 0.06,0.405 0.06,0.9 z m -4.6,-2.29 c -0.26,0.2 -0.45,0.47 -0.55,0.82 -0.06,0.18 -0.11,0.42 -0.13,0.7 -0.02,0.05 0,0.08 0.06,0.08 h 3.25 c 0.05,0 0.08,-0.03 0.08,-0.08 -0.02,-0.27 -0.05,-0.47 -0.1,-0.61 q -0.15,-0.57 -0.57,-0.9 c -0.28,-0.21 -0.64,-0.32 -1.06,-0.32 -0.39,0 -0.72,0.1 -0.98,0.3 z" id="path33357" class="cls-1"/>
    <path d="m 284.51,47.14 c 0.08,0.04 0.12,0.12 0.1,0.24 l -0.27,1.44 c -0.01,0.13 -0.08,0.17 -0.22,0.11 a 1.9,1.9 0 0 0 -0.56,-0.08 c -0.14,0 -0.25,0 -0.32,0.02 -0.45,0.02 -0.82,0.18 -1.12,0.47 q -0.45,0.435 -0.45,1.14 v 4.53 c 0,0.05 -0.02,0.1 -0.06,0.14 -0.04,0.04 -0.08,0.06 -0.14,0.06 H 280 c -0.05,0 -0.1,-0.02 -0.14,-0.06 -0.04,-0.04 -0.06,-0.08 -0.06,-0.14 v -7.79 c 0,-0.05 0.02,-0.1 0.06,-0.14 0.04,-0.04 0.08,-0.06 0.14,-0.06 h 1.47 c 0.05,0 0.1,0.02 0.14,0.06 0.04,0.04 0.06,0.08 0.06,0.14 v 0.72 c 0,0 0,0.07 0.02,0.07 0.02,0 0.03,0 0.06,-0.04 0.45,-0.69 1.07,-1.04 1.87,-1.04 q 0.51,0 0.9,0.21 z" id="path33355" class="cls-1"/>
    <path d="m 276.28,47.09 c 0,0 0.08,-0.06 0.14,-0.06 h 1.46 c 0.05,0 0.1,0.02 0.14,0.06 0.04,0.04 0.06,0.08 0.06,0.14 v 7.79 c 0,0.05 -0.02,0.1 -0.06,0.14 -0.04,0.04 -0.08,0.06 -0.14,0.06 h -1.46 c -0.05,0 -0.1,-0.02 -0.14,-0.06 -0.04,-0.04 -0.06,-0.08 -0.06,-0.14 v -0.51 c 0,0 -0.01,-0.05 -0.03,-0.06 -0.02,-0.01 -0.04,0 -0.06,0.03 -0.44,0.57 -1.09,0.85 -1.97,0.85 -0.81,0 -1.49,-0.23 -2.04,-0.7 -0.55,-0.47 -0.82,-1.14 -0.82,-2 v -5.39 c 0,-0.05 0.02,-0.1 0.06,-0.14 0.04,-0.04 0.08,-0.06 0.14,-0.06 h 1.47 c 0.05,0 0.1,0.02 0.14,0.06 0.04,0.04 0.06,0.08 0.06,0.14 v 4.86 q 0,0.75 0.39,1.2 c 0.26,0.3 0.63,0.45 1.1,0.45 0.47,0 0.86,-0.15 1.15,-0.45 0.29,-0.3 0.43,-0.7 0.43,-1.2 v -4.86 c 0,-0.05 0.02,-0.1 0.06,-0.14 z" id="path33353" class="cls-1"/>
    <path d="m 269.93,48.48 c 0,0 -0.08,0.06 -0.14,0.06 h -1.63 c -0.05,0 -0.08,0.03 -0.08,0.08 v 3.86 c 0,0.41 0.09,0.7 0.26,0.88 q 0.27,0.27 0.84,0.27 h 0.48 c 0.05,0 0.1,0.02 0.14,0.06 0.04,0.04 0.06,0.08 0.06,0.14 v 1.2 c 0,0.12 -0.06,0.19 -0.19,0.21 l -0.83,0.02 c -0.84,0 -1.47,-0.14 -1.89,-0.43 -0.42,-0.29 -0.63,-0.83 -0.64,-1.63 v -4.56 c 0,-0.05 -0.03,-0.08 -0.08,-0.08 h -0.91 c -0.05,0 -0.1,-0.02 -0.14,-0.06 a 0.18,0.18 0 0 1 -0.06,-0.14 v -1.12 c 0,-0.05 0.02,-0.1 0.06,-0.14 0.04,-0.04 0.08,-0.06 0.14,-0.06 h 0.91 c 0.05,0 0.08,-0.03 0.08,-0.08 v -1.87 c 0,-0.05 0.02,-0.1 0.06,-0.14 0.04,-0.04 0.08,-0.06 0.14,-0.06 h 1.39 c 0.05,0 0.1,0.02 0.14,0.06 0.04,0.04 0.06,0.08 0.06,0.14 v 1.87 c 0,0.05 0.03,0.08 0.08,0.08 h 1.63 c 0.05,0 0.1,0.02 0.14,0.06 0.04,0.04 0.06,0.08 0.06,0.14 v 1.12 c 0,0.05 -0.02,0.1 -0.06,0.14 z" id="path33351" class="cls-1"/>
    <path d="m 258.67,54.7 c -0.6,-0.42 -1.01,-0.99 -1.25,-1.7 -0.17,-0.48 -0.26,-1.12 -0.26,-1.92 0,-0.8 0.09,-1.4 0.26,-1.89 0.22,-0.7 0.64,-1.26 1.24,-1.67 0.6,-0.41 1.31,-0.62 2.14,-0.62 0.83,0 1.56,0.21 2.18,0.62 0.62,0.42 1.03,0.94 1.23,1.57 0.05,0.17 0.09,0.34 0.11,0.51 v 0.03 c 0,0.11 -0.06,0.17 -0.18,0.19 l -1.44,0.21 h -0.03 c -0.1,0 -0.16,-0.05 -0.19,-0.16 0,-0.05 0,-0.1 -0.02,-0.13 -0.02,-0.08 -0.04,-0.16 -0.06,-0.22 -0.1,-0.3 -0.29,-0.54 -0.58,-0.74 -0.29,-0.2 -0.63,-0.29 -1.02,-0.29 -0.39,0 -0.75,0.1 -1.03,0.31 -0.28,0.21 -0.47,0.49 -0.57,0.86 -0.11,0.34 -0.16,0.82 -0.16,1.42 0,0.6 0.05,1.06 0.14,1.42 0.11,0.37 0.3,0.67 0.58,0.89 0.28,0.22 0.62,0.33 1.04,0.33 0.42,0 0.75,-0.1 1.05,-0.31 q 0.435,-0.315 0.57,-0.84 c 0.01,-0.02 0.02,-0.05 0.02,-0.08 0.01,-0.01 0.02,-0.03 0.02,-0.05 0.03,-0.13 0.11,-0.18 0.22,-0.16 l 1.44,0.22 c 0.05,0.01 0.1,0.04 0.14,0.07 0.04,0.04 0.05,0.09 0.04,0.15 -0.03,0.17 -0.06,0.29 -0.08,0.37 q -0.3,1.02 -1.23,1.62 c -0.62,0.4 -1.34,0.6 -2.18,0.6 -0.84,0 -1.53,-0.21 -2.13,-0.63 z" id="path33349" class="cls-1"/>
    <path d="m 253.87,47.09 c 0,0 0.08,-0.06 0.14,-0.06 h 1.46 c 0.05,0 0.1,0.02 0.14,0.06 0.04,0.04 0.06,0.08 0.06,0.14 v 7.79 c 0,0.05 -0.02,0.1 -0.06,0.14 -0.04,0.04 -0.08,0.06 -0.14,0.06 h -1.46 c -0.05,0 -0.1,-0.02 -0.14,-0.06 -0.04,-0.04 -0.06,-0.08 -0.06,-0.14 v -0.51 c 0,0 -0.01,-0.05 -0.03,-0.06 -0.02,-0.01 -0.04,0 -0.06,0.03 -0.44,0.57 -1.09,0.85 -1.97,0.85 -0.81,0 -1.49,-0.23 -2.04,-0.7 -0.55,-0.47 -0.82,-1.14 -0.82,-2 v -5.39 c 0,-0.05 0.02,-0.1 0.06,-0.14 0.04,-0.04 0.08,-0.06 0.14,-0.06 h 1.47 c 0.05,0 0.1,0.02 0.14,0.06 0.04,0.04 0.06,0.08 0.06,0.14 v 4.86 q 0,0.75 0.39,1.2 c 0.26,0.3 0.63,0.45 1.1,0.45 0.47,0 0.86,-0.15 1.15,-0.45 0.29,-0.3 0.43,-0.7 0.43,-1.2 v -4.86 c 0,-0.05 0.02,-0.1 0.06,-0.14 z" id="path33347" class="cls-1"/>
    <path d="m 247.91,47.14 c 0.08,0.04 0.12,0.12 0.1,0.24 l -0.27,1.44 c -0.01,0.13 -0.08,0.17 -0.22,0.11 a 1.9,1.9 0 0 0 -0.56,-0.08 c -0.14,0 -0.25,0 -0.32,0.02 -0.45,0.02 -0.82,0.18 -1.12,0.47 q -0.45,0.435 -0.45,1.14 v 4.53 c 0,0.05 -0.02,0.1 -0.06,0.14 -0.04,0.04 -0.08,0.06 -0.14,0.06 h -1.47 c -0.05,0 -0.1,-0.02 -0.14,-0.06 -0.04,-0.04 -0.06,-0.08 -0.06,-0.14 v -7.79 c 0,-0.05 0.02,-0.1 0.06,-0.14 0.04,-0.04 0.08,-0.06 0.14,-0.06 h 1.47 c 0.05,0 0.1,0.02 0.14,0.06 0.04,0.04 0.06,0.08 0.06,0.14 v 0.72 c 0,0 0,0.07 0.02,0.07 0.02,0 0.03,0 0.06,-0.04 0.45,-0.69 1.07,-1.04 1.87,-1.04 q 0.51,0 0.9,0.21 z" id="path33345" class="cls-1"/>
    <path d="m 241.74,48.48 c 0,0 -0.08,0.06 -0.14,0.06 h -1.63 c -0.05,0 -0.08,0.03 -0.08,0.08 v 3.86 c 0,0.41 0.09,0.7 0.26,0.88 q 0.27,0.27 0.84,0.27 h 0.48 c 0.05,0 0.1,0.02 0.14,0.06 0.04,0.04 0.06,0.08 0.06,0.14 v 1.2 c 0,0.12 -0.06,0.19 -0.19,0.21 l -0.83,0.02 c -0.84,0 -1.47,-0.14 -1.89,-0.43 -0.42,-0.29 -0.63,-0.83 -0.64,-1.63 v -4.56 c 0,-0.05 -0.03,-0.08 -0.08,-0.08 h -0.91 c -0.05,0 -0.1,-0.02 -0.14,-0.06 a 0.18,0.18 0 0 1 -0.06,-0.14 v -1.12 c 0,-0.05 0.02,-0.1 0.06,-0.14 0.04,-0.04 0.08,-0.06 0.14,-0.06 h 0.91 c 0.05,0 0.08,-0.03 0.08,-0.08 v -1.87 c 0,-0.05 0.02,-0.1 0.06,-0.14 0.04,-0.04 0.08,-0.06 0.14,-0.06 h 1.39 c 0.05,0 0.1,0.02 0.14,0.06 0.04,0.04 0.06,0.08 0.06,0.14 v 1.87 c 0,0.05 0.03,0.08 0.08,0.08 h 1.63 c 0.05,0 0.1,0.02 0.14,0.06 0.04,0.04 0.06,0.08 0.06,0.14 v 1.12 c 0,0.05 -0.02,0.1 -0.06,0.14 z" id="path33343" class="cls-1"/>
    <path d="m 231.1,55.01 c -0.51,-0.2 -0.9,-0.47 -1.18,-0.82 -0.28,-0.35 -0.42,-0.73 -0.42,-1.16 v -0.14 c 0,-0.05 0.02,-0.1 0.06,-0.14 0.04,-0.04 0.08,-0.06 0.14,-0.06 h 1.41 c 0.05,0 0.1,0.02 0.14,0.06 0.04,0.04 0.06,0.08 0.06,0.14 v 0.03 c 0,0.27 0.15,0.5 0.44,0.7 q 0.435,0.3 1.11,0.3 c 0.675,0 0.77,-0.09 1.04,-0.26 0.27,-0.18 0.4,-0.4 0.4,-0.66 0,-0.25 -0.11,-0.43 -0.33,-0.55 -0.22,-0.12 -0.57,-0.25 -1.06,-0.39 l -0.61,-0.19 q -0.81,-0.24 -1.38,-0.51 c -0.37,-0.18 -0.69,-0.43 -0.94,-0.74 -0.26,-0.31 -0.38,-0.72 -0.38,-1.21 0,-0.75 0.29,-1.34 0.88,-1.78 0.59,-0.44 1.36,-0.66 2.32,-0.66 0.65,0 1.22,0.1 1.71,0.31 0.49,0.21 0.87,0.5 1.14,0.86 0.27,0.36 0.4,0.79 0.4,1.26 0,0.05 -0.02,0.1 -0.06,0.14 -0.04,0.04 -0.08,0.06 -0.14,0.06 h -1.36 c -0.05,0 -0.1,-0.02 -0.14,-0.06 a 0.18,0.18 0 0 1 -0.06,-0.14 c 0,-0.28 -0.14,-0.51 -0.41,-0.7 -0.27,-0.19 -0.64,-0.28 -1.11,-0.28 -0.42,0 -0.75,0.08 -1.02,0.23 -0.27,0.15 -0.39,0.37 -0.39,0.65 0,0.26 0.12,0.45 0.38,0.58 0.25,0.13 0.67,0.28 1.26,0.44 l 0.35,0.1 c 0.57,0.17 1.04,0.34 1.42,0.52 0.38,0.18 0.71,0.42 0.98,0.74 0.27,0.32 0.4,0.72 0.4,1.22 0,0.76 -0.3,1.35 -0.9,1.78 -0.6,0.43 -1.39,0.65 -2.38,0.65 q -1.005,0 -1.77,-0.3 z" id="path33341" class="cls-1"/>
    <path d="m 226.61,47.25 c 0.51,0.24 0.91,0.56 1.18,0.97 0.28,0.41 0.42,0.88 0.42,1.4 v 5.39 c 0,0.05 -0.02,0.1 -0.06,0.14 -0.04,0.04 -0.08,0.06 -0.14,0.06 h -1.47 c -0.05,0 -0.1,-0.02 -0.14,-0.06 a 0.18,0.18 0 0 1 -0.06,-0.14 V 54.5 c 0,0 -0.01,-0.05 -0.03,-0.06 -0.02,0 -0.04,0 -0.06,0.02 -0.52,0.58 -1.28,0.86 -2.27,0.86 -0.8,0 -1.46,-0.2 -1.98,-0.61 -0.52,-0.4 -0.78,-1.01 -0.78,-1.81 0,-0.8 0.29,-1.48 0.87,-1.94 0.58,-0.46 1.4,-0.7 2.46,-0.7 h 1.71 c 0.05,0 0.08,-0.03 0.08,-0.08 V 49.8 c 0,-0.42 -0.12,-0.74 -0.37,-0.97 -0.25,-0.23 -0.61,-0.34 -1.1,-0.34 -0.41,0 -0.73,0.07 -0.98,0.22 -0.25,0.14 -0.41,0.34 -0.47,0.6 -0.03,0.13 -0.11,0.18 -0.22,0.16 l -1.55,-0.19 a 0.35,0.35 0 0 1 -0.14,-0.06 c -0.04,-0.03 -0.05,-0.06 -0.04,-0.1 0.08,-0.65 0.43,-1.18 1.05,-1.6 0.62,-0.42 1.38,-0.62 2.31,-0.62 0.67,0 1.26,0.12 1.78,0.35 m -0.82,6.2 c 0.37,-0.28 0.56,-0.63 0.56,-1.06 v -0.75 c 0,-0.05 -0.03,-0.08 -0.08,-0.08 h -1.34 c -0.57,0 -1.01,0.11 -1.34,0.32 -0.33,0.21 -0.49,0.52 -0.49,0.91 0,0.34 0.12,0.61 0.38,0.79 0.26,0.18 0.57,0.28 0.97,0.28 0.52,0 0.97,-0.14 1.34,-0.42 z" id="path33339" class="cls-1"/>
    <path d="m 220.72,47.14 c 0.08,0.04 0.12,0.12 0.1,0.24 l -0.27,1.44 c -0.01,0.13 -0.08,0.17 -0.22,0.11 a 1.9,1.9 0 0 0 -0.56,-0.08 c -0.14,0 -0.25,0 -0.32,0.02 -0.45,0.02 -0.82,0.18 -1.12,0.47 q -0.45,0.435 -0.45,1.14 v 4.53 c 0,0.05 -0.02,0.1 -0.06,0.14 -0.04,0.04 -0.08,0.06 -0.14,0.06 h -1.47 c -0.05,0 -0.1,-0.02 -0.14,-0.06 -0.04,-0.04 -0.06,-0.08 -0.06,-0.14 v -7.79 c 0,-0.05 0.02,-0.1 0.06,-0.14 0.04,-0.04 0.08,-0.06 0.14,-0.06 h 1.47 c 0.05,0 0.1,0.02 0.14,0.06 0.04,0.04 0.06,0.08 0.06,0.14 v 0.72 c 0,0 0,0.07 0.02,0.07 0.02,0 0.03,0 0.06,-0.04 0.45,-0.69 1.07,-1.04 1.87,-1.04 q 0.51,0 0.9,0.21 z" id="path33337" class="cls-1"/>
    <path d="m 214.63,47.07 c 0,0 0.06,0.08 0.06,0.14 v 1.26 c 0,0.05 -0.02,0.1 -0.06,0.14 -0.04,0.04 -0.08,0.06 -0.14,0.06 h -1.58 c -0.05,0 -0.08,0.03 -0.08,0.08 v 6.27 c 0,0.05 -0.02,0.1 -0.06,0.14 -0.04,0.04 -0.08,0.06 -0.14,0.06 h -1.47 c -0.05,0 -0.1,-0.02 -0.14,-0.06 a 0.18,0.18 0 0 1 -0.06,-0.14 v -6.27 c 0,-0.05 -0.03,-0.08 -0.08,-0.08 h -0.99 c -0.05,0 -0.1,-0.02 -0.14,-0.06 a 0.18,0.18 0 0 1 -0.06,-0.14 v -1.26 c 0,-0.05 0.02,-0.1 0.06,-0.14 0.04,-0.04 0.08,-0.06 0.14,-0.06 h 0.99 c 0.05,0 0.08,-0.03 0.08,-0.08 v -0.29 c 0,-0.69 0.09,-1.23 0.27,-1.61 0.18,-0.38 0.48,-0.65 0.9,-0.81 0.42,-0.16 1,-0.24 1.76,-0.22 h 0.56 c 0.05,0 0.1,0.02 0.14,0.06 0.04,0.04 0.06,0.08 0.06,0.14 v 1.12 c 0,0.05 -0.02,0.1 -0.06,0.14 -0.04,0.04 -0.08,0.06 -0.14,0.06 h -0.42 c -0.46,0 -0.78,0.09 -0.95,0.27 -0.18,0.18 -0.26,0.51 -0.26,0.99 v 0.16 c 0,0.05 0.03,0.08 0.08,0.08 h 1.58 c 0.05,0 0.1,0.02 0.14,0.06 z" id="path33335" class="cls-1"/>
    <path d="m 207.77,47.67 q 0.78,0.765 0.78,2.1 v 5.25 c 0,0.05 -0.02,0.1 -0.06,0.14 -0.04,0.04 -0.08,0.06 -0.14,0.06 h -1.47 c -0.05,0 -0.1,-0.02 -0.14,-0.06 -0.04,-0.04 -0.06,-0.08 -0.06,-0.14 v -4.86 c 0,-0.49 -0.14,-0.89 -0.42,-1.19 -0.28,-0.3 -0.65,-0.46 -1.1,-0.46 -0.45,0 -0.83,0.15 -1.11,0.45 -0.28,0.3 -0.42,0.69 -0.42,1.18 v 4.88 c 0,0.05 -0.02,0.1 -0.06,0.14 -0.04,0.04 -0.08,0.06 -0.14,0.06 h -1.47 c -0.05,0 -0.1,-0.02 -0.14,-0.06 -0.04,-0.04 -0.06,-0.08 -0.06,-0.14 v -7.79 c 0,-0.05 0.02,-0.1 0.06,-0.14 0.04,-0.04 0.08,-0.06 0.14,-0.06 h 1.47 c 0.05,0 0.1,0.02 0.14,0.06 0.04,0.04 0.06,0.08 0.06,0.14 v 0.51 c 0,0 0.01,0.05 0.03,0.06 0.02,0.01 0.04,0 0.05,-0.03 0.44,-0.58 1.1,-0.86 1.98,-0.86 0.88,0 1.55,0.26 2.07,0.77 z" id="path33333" class="cls-1"/>
    <path d="m 198.06,55.15 c 0,0 -0.06,-0.08 -0.06,-0.14 V 44.19 c 0,-0.05 0.02,-0.1 0.06,-0.14 0.04,-0.04 0.08,-0.06 0.14,-0.06 h 1.47 c 0.05,0 0.1,0.02 0.14,0.06 0.04,0.04 0.06,0.08 0.06,0.14 v 10.82 c 0,0.05 -0.02,0.1 -0.06,0.14 -0.04,0.04 -0.08,0.06 -0.14,0.06 h -1.47 c -0.05,0 -0.1,-0.02 -0.14,-0.06" id="path33331" class="cls-1"/>
    <path d="m 192.4,47.67 q 0.78,0.765 0.78,2.1 v 5.25 c 0,0.05 -0.02,0.1 -0.06,0.14 -0.04,0.04 -0.08,0.06 -0.14,0.06 h -1.47 c -0.05,0 -0.1,-0.02 -0.14,-0.06 -0.04,-0.04 -0.06,-0.08 -0.06,-0.14 v -4.86 c 0,-0.49 -0.14,-0.89 -0.42,-1.19 -0.28,-0.3 -0.65,-0.46 -1.1,-0.46 -0.45,0 -0.83,0.15 -1.11,0.45 -0.28,0.3 -0.42,0.69 -0.42,1.18 v 4.88 c 0,0.05 -0.02,0.1 -0.06,0.14 -0.04,0.04 -0.08,0.06 -0.14,0.06 h -1.47 c -0.05,0 -0.1,-0.02 -0.14,-0.06 -0.04,-0.04 -0.06,-0.08 -0.06,-0.14 V 44.2 c 0,-0.05 0.02,-0.1 0.06,-0.14 0.04,-0.04 0.08,-0.06 0.14,-0.06 h 1.47 c 0.05,0 0.1,0.02 0.14,0.06 0.04,0.04 0.06,0.08 0.06,0.14 v 3.54 c 0,0 0.01,0.05 0.03,0.06 0.02,0.01 0.04,0 0.05,-0.03 0.44,-0.58 1.1,-0.86 1.98,-0.86 0.88,0 1.55,0.26 2.07,0.77 z" id="path33329" class="cls-1"/>
    <path d="m 179.43,54.7 c -0.6,-0.42 -1.01,-0.99 -1.25,-1.7 -0.17,-0.48 -0.26,-1.12 -0.26,-1.92 0,-0.8 0.09,-1.4 0.26,-1.89 0.22,-0.7 0.64,-1.26 1.24,-1.67 0.6,-0.41 1.31,-0.62 2.14,-0.62 0.83,0 1.56,0.21 2.18,0.62 0.62,0.42 1.03,0.94 1.23,1.57 0.05,0.17 0.09,0.34 0.11,0.51 v 0.03 c 0,0.11 -0.06,0.17 -0.18,0.19 l -1.44,0.21 h -0.03 c -0.1,0 -0.16,-0.05 -0.19,-0.16 0,-0.05 0,-0.1 -0.02,-0.13 -0.02,-0.08 -0.04,-0.16 -0.06,-0.22 -0.1,-0.3 -0.29,-0.54 -0.58,-0.74 -0.29,-0.2 -0.63,-0.29 -1.02,-0.29 -0.39,0 -0.75,0.1 -1.03,0.31 -0.28,0.21 -0.47,0.49 -0.57,0.86 -0.11,0.34 -0.16,0.82 -0.16,1.42 0,0.6 0.05,1.06 0.14,1.42 0.11,0.37 0.3,0.67 0.58,0.89 0.28,0.22 0.62,0.33 1.04,0.33 0.42,0 0.75,-0.1 1.05,-0.31 q 0.435,-0.315 0.57,-0.84 c 0.01,-0.02 0.02,-0.05 0.02,-0.08 0.01,-0.01 0.02,-0.03 0.02,-0.05 0.03,-0.13 0.11,-0.18 0.22,-0.16 l 1.44,0.22 c 0.05,0.01 0.1,0.04 0.14,0.07 0.04,0.04 0.05,0.09 0.04,0.15 -0.03,0.17 -0.06,0.29 -0.08,0.37 q -0.3,1.02 -1.23,1.62 c -0.62,0.4 -1.34,0.6 -2.18,0.6 -0.84,0 -1.53,-0.21 -2.13,-0.63 z" id="path33327" class="cls-1"/>
    <path d="m 177.24,47.14 c 0.08,0.04 0.12,0.12 0.1,0.24 l -0.27,1.44 c -0.01,0.13 -0.08,0.17 -0.22,0.11 a 1.9,1.9 0 0 0 -0.56,-0.08 c -0.14,0 -0.25,0 -0.32,0.02 -0.45,0.02 -0.82,0.18 -1.12,0.47 q -0.45,0.435 -0.45,1.14 v 4.53 c 0,0.05 -0.02,0.1 -0.06,0.14 -0.04,0.04 -0.08,0.06 -0.14,0.06 h -1.47 c -0.05,0 -0.1,-0.02 -0.14,-0.06 -0.04,-0.04 -0.06,-0.08 -0.06,-0.14 v -7.79 c 0,-0.05 0.02,-0.1 0.06,-0.14 0.04,-0.04 0.08,-0.06 0.14,-0.06 h 1.47 c 0.05,0 0.1,0.02 0.14,0.06 0.04,0.04 0.06,0.08 0.06,0.14 v 0.72 c 0,0 0,0.07 0.02,0.07 0.02,0 0.03,0 0.06,-0.04 0.45,-0.69 1.07,-1.04 1.87,-1.04 q 0.51,0 0.9,0.21 z" id="path33325" class="cls-1"/>
    <path d="m 169.31,47.25 c 0.51,0.24 0.91,0.56 1.18,0.97 0.28,0.41 0.42,0.88 0.42,1.4 v 5.39 c 0,0.05 -0.02,0.1 -0.06,0.14 -0.04,0.04 -0.08,0.06 -0.14,0.06 h -1.47 c -0.05,0 -0.1,-0.02 -0.14,-0.06 a 0.18,0.18 0 0 1 -0.06,-0.14 V 54.5 c 0,0 -0.01,-0.05 -0.03,-0.06 -0.02,0 -0.04,0 -0.06,0.02 -0.52,0.58 -1.28,0.86 -2.27,0.86 -0.8,0 -1.46,-0.2 -1.98,-0.61 -0.52,-0.4 -0.78,-1.01 -0.78,-1.81 0,-0.8 0.29,-1.48 0.87,-1.94 0.58,-0.46 1.4,-0.7 2.46,-0.7 h 1.71 c 0.05,0 0.08,-0.03 0.08,-0.08 V 49.8 c 0,-0.42 -0.12,-0.74 -0.37,-0.97 -0.25,-0.23 -0.61,-0.34 -1.1,-0.34 -0.41,0 -0.73,0.07 -0.98,0.22 -0.25,0.14 -0.41,0.34 -0.47,0.6 -0.03,0.13 -0.11,0.18 -0.22,0.16 l -1.55,-0.19 a 0.35,0.35 0 0 1 -0.14,-0.06 c -0.04,-0.03 -0.05,-0.06 -0.04,-0.1 0.08,-0.65 0.43,-1.18 1.05,-1.6 0.62,-0.42 1.38,-0.62 2.31,-0.62 0.67,0 1.26,0.12 1.78,0.35 m -0.81,6.2 c 0.37,-0.28 0.56,-0.63 0.56,-1.06 v -0.75 c 0,-0.05 -0.03,-0.08 -0.08,-0.08 h -1.34 c -0.57,0 -1.01,0.11 -1.34,0.32 -0.33,0.21 -0.49,0.52 -0.49,0.91 0,0.34 0.12,0.61 0.38,0.79 0.26,0.18 0.57,0.28 0.97,0.28 0.52,0 0.97,-0.14 1.34,-0.42 z" id="path33323" class="cls-1"/>
    <path d="m 163.04,51.09 -0.02,0.5 c 0,0.13 -0.06,0.19 -0.19,0.19 h -5.01 c -0.05,0 -0.08,0.03 -0.08,0.08 0.03,0.35 0.08,0.59 0.14,0.72 0.26,0.77 0.88,1.16 1.87,1.17 0.73,0 1.3,-0.3 1.73,-0.9 0.04,-0.06 0.1,-0.1 0.16,-0.1 0.04,0 0.08,0.02 0.11,0.05 l 0.99,0.82 c 0.1,0.08 0.11,0.16 0.05,0.26 -0.33,0.47 -0.77,0.83 -1.32,1.09 -0.55,0.26 -1.16,0.38 -1.83,0.38 -0.83,0 -1.54,-0.19 -2.12,-0.56 -0.58,-0.37 -1.01,-0.9 -1.27,-1.57 -0.25,-0.58 -0.37,-1.38 -0.37,-2.4 0,-0.62 0.06,-1.12 0.19,-1.5 0.21,-0.75 0.62,-1.34 1.21,-1.77 0.59,-0.43 1.3,-0.65 2.14,-0.65 2.1,0 3.29,1.1 3.55,3.3 q 0.06,0.405 0.06,0.9 z m -4.6,-2.29 c -0.26,0.2 -0.45,0.47 -0.55,0.82 -0.06,0.18 -0.11,0.42 -0.13,0.7 -0.02,0.05 0,0.08 0.06,0.08 h 3.25 c 0.05,0 0.08,-0.03 0.08,-0.08 -0.02,-0.27 -0.05,-0.47 -0.1,-0.61 q -0.15,-0.57 -0.57,-0.9 c -0.28,-0.21 -0.64,-0.32 -1.06,-0.32 -0.39,0 -0.72,0.1 -0.98,0.3 z" id="path33321" class="cls-1"/>
    <path d="m 149.71,55.01 c -0.51,-0.2 -0.9,-0.47 -1.18,-0.82 -0.28,-0.35 -0.42,-0.73 -0.42,-1.16 v -0.14 c 0,-0.05 0.02,-0.1 0.06,-0.14 0.04,-0.04 0.08,-0.06 0.14,-0.06 h 1.41 c 0.05,0 0.1,0.02 0.14,0.06 0.04,0.04 0.06,0.08 0.06,0.14 v 0.03 c 0,0.27 0.15,0.5 0.44,0.7 q 0.435,0.3 1.11,0.3 c 0.675,0 0.77,-0.09 1.04,-0.26 0.27,-0.18 0.4,-0.4 0.4,-0.66 0,-0.25 -0.11,-0.43 -0.33,-0.55 -0.22,-0.12 -0.57,-0.25 -1.06,-0.39 l -0.61,-0.19 q -0.81,-0.24 -1.38,-0.51 c -0.37,-0.18 -0.69,-0.43 -0.94,-0.74 -0.26,-0.31 -0.38,-0.72 -0.38,-1.21 0,-0.75 0.29,-1.34 0.88,-1.78 0.59,-0.44 1.36,-0.66 2.32,-0.66 0.65,0 1.22,0.1 1.71,0.31 0.49,0.21 0.87,0.5 1.14,0.86 0.27,0.36 0.4,0.79 0.4,1.26 0,0.05 -0.02,0.1 -0.06,0.14 -0.04,0.04 -0.08,0.06 -0.14,0.06 h -1.36 c -0.05,0 -0.1,-0.02 -0.14,-0.06 A 0.18,0.18 0 0 1 152.9,49.4 c 0,-0.28 -0.14,-0.51 -0.41,-0.7 -0.27,-0.19 -0.64,-0.28 -1.11,-0.28 -0.42,0 -0.75,0.08 -1.02,0.23 -0.27,0.15 -0.39,0.37 -0.39,0.65 0,0.26 0.12,0.45 0.38,0.58 0.25,0.13 0.67,0.28 1.26,0.44 l 0.35,0.1 c 0.57,0.17 1.04,0.34 1.42,0.52 0.38,0.18 0.71,0.42 0.98,0.74 0.27,0.32 0.4,0.72 0.4,1.22 0,0.76 -0.3,1.35 -0.9,1.78 -0.6,0.43 -1.39,0.65 -2.38,0.65 q -1.005,0 -1.77,-0.3 z" id="path33319" class="cls-1"/>
    <path d="m 147.11,51.09 -0.02,0.5 c 0,0.13 -0.06,0.19 -0.19,0.19 h -5.01 c -0.05,0 -0.08,0.03 -0.08,0.08 0.03,0.35 0.08,0.59 0.14,0.72 0.26,0.77 0.88,1.16 1.87,1.17 0.73,0 1.3,-0.3 1.73,-0.9 0.04,-0.06 0.1,-0.1 0.16,-0.1 0.04,0 0.08,0.02 0.11,0.05 l 0.99,0.82 c 0.1,0.08 0.11,0.16 0.05,0.26 -0.33,0.47 -0.77,0.83 -1.32,1.09 -0.55,0.26 -1.16,0.38 -1.83,0.38 -0.83,0 -1.54,-0.19 -2.12,-0.56 -0.58,-0.37 -1.01,-0.9 -1.27,-1.57 -0.25,-0.58 -0.37,-1.38 -0.37,-2.4 0,-0.62 0.06,-1.12 0.19,-1.5 0.21,-0.75 0.62,-1.34 1.21,-1.77 0.59,-0.43 1.3,-0.65 2.14,-0.65 2.1,0 3.29,1.1 3.55,3.3 q 0.06,0.405 0.06,0.9 z m -4.6,-2.29 c -0.26,0.2 -0.45,0.47 -0.55,0.82 -0.06,0.18 -0.11,0.42 -0.13,0.7 -0.02,0.05 0,0.08 0.06,0.08 h 3.25 c 0.05,0 0.08,-0.03 0.08,-0.08 -0.02,-0.27 -0.05,-0.47 -0.1,-0.61 q -0.15,-0.57 -0.57,-0.9 c -0.28,-0.21 -0.64,-0.32 -1.06,-0.32 -0.39,0 -0.72,0.1 -0.98,0.3 z" id="path33317" class="cls-1"/>
    <path d="m 136.92,55.06 -2.11,-4.61 c 0,0 -0.05,-0.06 -0.1,-0.06 h -1.92 c -0.05,0 -0.08,0.03 -0.08,0.08 v 4.54 c 0,0.05 -0.02,0.1 -0.06,0.14 -0.04,0.04 -0.08,0.06 -0.14,0.06 h -1.47 c -0.05,0 -0.1,-0.02 -0.14,-0.06 a 0.18,0.18 0 0 1 -0.06,-0.14 V 44.19 c 0,-0.05 0.02,-0.1 0.06,-0.14 0.04,-0.04 0.08,-0.06 0.14,-0.06 h 4.4 c 0.65,0 1.23,0.14 1.73,0.41 0.5,0.27 0.89,0.66 1.17,1.15 0.28,0.49 0.42,1.06 0.42,1.7 0,0.74 -0.19,1.36 -0.57,1.88 -0.38,0.52 -0.9,0.88 -1.58,1.08 -0.02,0 -0.04,0.01 -0.05,0.03 q -0.015,0.03 0,0.06 l 2.26,4.66 c 0,0 0.03,0.07 0.03,0.1 0,0.08 -0.06,0.13 -0.18,0.13 h -1.54 a 0.22,0.22 0 0 1 -0.22,-0.14 z m -4.21,-9.37 v 3.18 c 0,0.05 0.03,0.08 0.08,0.08 h 2.4 c 0.51,0 0.93,-0.15 1.24,-0.46 0.31,-0.31 0.47,-0.71 0.47,-1.21 0,-0.5 -0.16,-0.91 -0.47,-1.22 -0.31,-0.31 -0.73,-0.46 -1.24,-0.46 h -2.4 c -0.05,0 -0.08,0.03 -0.08,0.08 z" id="path32981" class="cls-1"/>
  </g>
  <g id="g33859">
    <path d="m 24.77,34.73 c -0.08,0.08 -0.18,0.12 -0.32,0.12 h -8.58 c -0.1,0 -0.14,0.05 -0.14,0.14 v 2.7 c 0,0.1 0.05,0.14 0.14,0.14 h 5.31 c 0.13,0 0.24,0.04 0.32,0.11 0.08,0.08 0.12,0.18 0.12,0.32 v 3.73 c 0,0.13 -0.04,0.24 -0.12,0.32 -0.08,0.08 -0.18,0.12 -0.32,0.12 h -5.31 c -0.1,0 -0.14,0.05 -0.14,0.14 v 2.98 c 0,0.1 0.05,0.14 0.14,0.14 h 8.58 c 0.13,0 0.24,0.04 0.32,0.11 0.08,0.08 0.12,0.18 0.12,0.32 v 3.76 c 0,0.13 -0.04,0.24 -0.12,0.32 -0.08,0.08 -0.18,0.11 -0.32,0.11 H 10.77 c -0.13,0 -0.24,-0.04 -0.32,-0.11 A 0.42,0.42 0 0 1 10.33,49.88 V 30.67 c 0,-0.13 0.04,-0.24 0.12,-0.32 0.08,-0.08 0.18,-0.11 0.32,-0.11 h 13.68 c 0.13,0 0.24,0.04 0.32,0.11 0.08,0.08 0.12,0.18 0.12,0.32 v 3.76 c 0,0.13 -0.04,0.24 -0.12,0.32 z" id="path33401" class="cls-1"/>
    <path d="m 113.77,50.19 a 0.42,0.42 0 0 1 -0.12,-0.32 V 30.66 c 0,-0.13 0.04,-0.24 0.12,-0.32 0.08,-0.08 0.18,-0.11 0.32,-0.11 h 4.53 c 0.13,0 0.24,0.04 0.32,0.11 0.08,0.08 0.11,0.18 0.11,0.32 v 19.21 c 0,0.13 -0.04,0.24 -0.11,0.32 -0.07,0.08 -0.18,0.11 -0.32,0.11 h -4.53 c -0.13,0 -0.24,-0.04 -0.32,-0.11" id="path33399" class="cls-1"/>
    <path d="m 98.34,49.99 -3.15,-7.28 c -0.04,-0.08 -0.1,-0.12 -0.17,-0.12 h -1.21 c -0.1,0 -0.14,0.05 -0.14,0.14 v 7.14 c 0,0.13 -0.04,0.24 -0.11,0.32 -0.07,0.08 -0.18,0.11 -0.32,0.11 h -4.53 c -0.13,0 -0.24,-0.04 -0.32,-0.11 A 0.42,0.42 0 0 1 88.27,49.87 V 30.66 c 0,-0.13 0.04,-0.24 0.12,-0.32 0.08,-0.08 0.18,-0.11 0.32,-0.11 h 8.69 c 1.3,0 2.44,0.27 3.43,0.8 0.98,0.54 1.75,1.29 2.29,2.25 0.54,0.97 0.82,2.08 0.82,3.34 0,1.26 -0.31,2.37 -0.93,3.31 -0.62,0.95 -1.48,1.64 -2.57,2.08 -0.1,0.04 -0.12,0.11 -0.09,0.2 l 3.64,7.57 c 0.04,0.12 0.06,0.18 0.06,0.2 0,0.1 -0.04,0.17 -0.12,0.23 -0.08,0.06 -0.17,0.09 -0.29,0.09 h -4.82 c -0.25,0 -0.41,-0.1 -0.49,-0.32 z m -4.67,-15 v 3.36 c 0,0.1 0.05,0.14 0.14,0.14 h 2.7 c 0.61,0 1.11,-0.17 1.49,-0.5 0.38,-0.33 0.57,-0.77 0.57,-1.31 0,-0.54 -0.19,-1 -0.57,-1.33 -0.38,-0.33 -0.88,-0.5 -1.49,-0.5 h -2.7 c -0.1,0 -0.14,0.05 -0.14,0.14" id="path33397" class="cls-1"/>
    <g id="g33849">
      <path d="m 56.78,40.17 21.63,6.04 v 22.66 c 0,0.37 -0.11,0.66 -0.32,0.88 -0.21,0.21 -0.51,0.32 -0.88,0.32 H 64.6 c -0.37,0 -0.66,-0.11 -0.88,-0.32 C 63.51,69.54 63.4,69.24 63.4,68.87 V 49.31 c 0,-0.27 -0.13,-0.4 -0.4,-0.4 H 50.55 c -0.27,0 -0.4,0.13 -0.4,0.4 v 19.56 c 0,0.37 -0.11,0.66 -0.32,0.88 -0.21,0.21 -0.51,0.32 -0.88,0.32 H 36.34 c -0.37,0 -0.67,-0.11 -0.88,-0.32 -0.21,-0.21 -0.32,-0.51 -0.32,-0.88 V 46.21 l 21.63,-6.04 z" class="cls-2" id="path32983"/>
      <path d="M 77.22,70.56 H 64.6 C 64.09,70.56 63.68,70.4 63.37,70.1 63.06,69.79 62.9,69.38 62.9,68.87 V 49.41 H 50.65 v 19.46 c 0,0.5 -0.16,0.92 -0.46,1.23 -0.31,0.31 -0.73,0.47 -1.23,0.47 H 36.35 c -0.51,0 -0.92,-0.16 -1.23,-0.46 -0.31,-0.31 -0.47,-0.73 -0.47,-1.23 V 45.84 l 22.13,-6.18 0.13,0.04 22,6.14 v 23.04 c 0,0.51 -0.16,0.92 -0.46,1.23 -0.31,0.31 -0.73,0.47 -1.23,0.47 z M 50.56,48.41 h 12.45 c 0.55,0 0.9,0.35 0.9,0.9 v 19.56 c 0,0.24 0.06,0.41 0.17,0.53 0.12,0.12 0.29,0.17 0.52,0.17 h 12.62 c 0.24,0 0.41,-0.06 0.52,-0.17 0.12,-0.12 0.17,-0.29 0.17,-0.52 V 46.6 L 56.78,40.7 35.65,46.6 v 22.28 c 0,0.24 0.06,0.41 0.17,0.53 0.12,0.11 0.29,0.17 0.52,0.17 h 12.61 c 0.24,0 0.41,-0.06 0.53,-0.17 0.11,-0.12 0.17,-0.29 0.17,-0.52 V 49.33 c 0,-0.55 0.35,-0.9 0.9,-0.9 z" class="cls-1" id="path32985"/>
      <path d="M 78.1,13.63 C 77.89,13.42 77.59,13.31 77.22,13.31 H 64.61 c -0.37,0 -0.67,0.11 -0.88,0.32 -0.21,0.21 -0.32,0.51 -0.32,0.88 v 20.28 c 0,0.27 -0.13,0.4 -0.4,0.4 H 50.56 c -0.27,0 -0.4,-0.13 -0.4,-0.4 V 14.51 c 0,-0.37 -0.11,-0.67 -0.32,-0.88 -0.21,-0.21 -0.51,-0.32 -0.88,-0.32 H 36.35 c -0.37,0 -0.67,0.11 -0.88,0.32 -0.21,0.21 -0.32,0.51 -0.32,0.88 v 31.7 l 21.63,-6.04 21.63,6.04 v -31.7 c 0,-0.37 -0.11,-0.67 -0.32,-0.88 z" class="cls-1" id="path32987"/>
      <path d="M 78.92,46.86 56.79,40.69 34.66,46.86 V 14.51 c 0,-0.51 0.16,-0.92 0.47,-1.23 0.31,-0.31 0.72,-0.46 1.23,-0.46 h 12.61 c 0.51,0 0.92,0.16 1.23,0.46 0.31,0.31 0.47,0.73 0.47,1.23 V 34.69 H 62.92 V 14.51 c 0,-0.51 0.16,-0.92 0.47,-1.23 0.31,-0.31 0.72,-0.46 1.23,-0.46 h 12.62 c 0.51,0 0.92,0.16 1.23,0.47 0.31,0.31 0.46,0.72 0.46,1.23 v 32.35 z m -22.14,-7.21 0.13,0.04 21,5.86 V 14.51 c 0,-0.24 -0.06,-0.41 -0.17,-0.53 -0.11,-0.12 -0.29,-0.17 -0.52,-0.17 H 64.6 c -0.24,0 -0.41,0.06 -0.52,0.17 -0.12,0.12 -0.17,0.29 -0.17,0.53 v 20.28 c 0,0.54 -0.36,0.9 -0.9,0.9 H 50.56 c -0.55,0 -0.9,-0.35 -0.9,-0.9 V 14.51 c 0,-0.24 -0.06,-0.41 -0.17,-0.53 -0.11,-0.11 -0.29,-0.17 -0.52,-0.17 H 36.36 c -0.24,0 -0.41,0.06 -0.53,0.17 -0.12,0.11 -0.17,0.29 -0.17,0.53 v 31.04 l 21.13,-5.9 z" class="cls-1" id="path32989"/>
    </g>
  </g>
</svg>
