<?xml version="1.0" encoding="UTF-8"?>
<svg id="Layer_1" data-name="Layer 1" xmlns="http://www.w3.org/2000/svg" viewBox="0 0 114 114">
  <defs>
    <style>
      .cls-1 {
        opacity: .4;
      }

      .cls-1, .cls-2, .cls-3 {
        fill: #fff;
      }

      .cls-2, .cls-4 {
        stroke: #fff;
        stroke-miterlimit: 10;
        stroke-width: .97px;
      }

      .cls-5 {
        fill: #50375e;
      }

      .cls-4 {
        fill: none;
      }
    </style>
  </defs>
  <rect class="cls-5" x="0" width="114" height="114"/>
  <g>
    <path class="cls-4" d="M49.33,55.53l20.93,5.84v21.93c0,.36-.1.64-.31.85-.21.2-.49.31-.85.31h-12.21c-.36,0-.64-.1-.85-.31-.21-.21-.31-.49-.31-.85v-18.93c0-.26-.13-.39-.39-.39h-12.05c-.26,0-.39.13-.39.39v18.93c0,.36-.1.64-.31.85-.21.2-.49.31-.85.31h-12.21c-.36,0-.64-.1-.85-.31-.21-.21-.31-.49-.31-.85v-21.93l20.93-5.84Z"/>
    <path class="cls-2" d="M69.96,29.85c-.21-.21-.49-.31-.85-.31h-12.21c-.36,0-.64.1-.85.31-.21.21-.31.49-.31.85v19.62c0,.26-.13.39-.39.39h-12.05c-.26,0-.39-.13-.39-.39v-19.62c0-.36-.1-.64-.31-.85-.21-.21-.49-.31-.85-.31h-12.21c-.36,0-.64.1-.85.31-.21.21-.31.49-.31.85v30.67l20.93-5.84,20.93,5.84v-30.67c0-.36-.1-.64-.31-.85Z"/>
    <g>
      <path class="cls-3" d="M89.56,65.03l-3.05-7.05c-.04-.07-.09-.11-.17-.11h-1.17c-.09,0-.14.05-.14.14v6.91c0,.13-.04.23-.11.3-.07.07-.18.11-.3.11h-4.38c-.13,0-.23-.04-.31-.11-.07-.07-.11-.17-.11-.3v-18.59c0-.13.04-.23.11-.31.07-.07.18-.11.31-.11h8.41c1.26,0,2.36.26,3.32.78.95.52,1.69,1.24,2.22,2.18.53.93.79,2.01.79,3.23s-.3,2.29-.9,3.21c-.6.92-1.43,1.59-2.48,2.01-.09.04-.12.1-.08.19l3.52,7.33c.04.11.06.18.06.19,0,.09-.04.17-.11.22s-.17.08-.28.08h-4.66c-.24,0-.4-.1-.47-.31ZM85.03,50.52v3.25c0,.09.05.14.14.14h2.61c.59,0,1.07-.16,1.44-.49.37-.32.55-.74.55-1.26s-.18-.97-.55-1.29-.85-.49-1.44-.49h-2.61c-.09,0-.14.05-.14.14Z"/>
      <path class="cls-3" d="M104.49,65.23c-.07-.07-.11-.17-.11-.3v-18.59c0-.13.04-.23.11-.31.07-.07.18-.11.31-.11h4.38c.13,0,.23.04.3.11.07.07.11.18.11.31v18.59c0,.13-.04.23-.11.3-.07.07-.18.11-.3.11h-4.38c-.13,0-.23-.04-.31-.11Z"/>
    </g>
    <path class="cls-3" d="M18.37,50.27c-.07.07-.18.11-.31.11h-8.3c-.09,0-.14.05-.14.14v2.61c0,.09.05.14.14.14h5.13c.13,0,.23.04.31.11.07.07.11.18.11.31v3.61c0,.13-.04.23-.11.31-.07.07-.18.11-.31.11h-5.13c-.09,0-.14.05-.14.14v2.89c0,.09.05.14.14.14h8.3c.13,0,.23.04.31.11.07.07.11.18.11.31v3.64c0,.13-.04.23-.11.3-.07.07-.18.11-.31.11H4.82c-.13,0-.23-.04-.31-.11-.07-.07-.11-.17-.11-.3v-18.59c0-.13.04-.23.11-.31s.18-.11.31-.11h13.24c.13,0,.23.04.31.11.07.07.11.18.11.31v3.64c0,.13-.04.23-.11.31Z"/>
    <path class="cls-1" d="M49.33,55.53l20.93,5.84v21.93c0,.36-.1.64-.31.85-.21.2-.49.31-.85.31h-12.21c-.36,0-.64-.1-.85-.31-.21-.21-.31-.49-.31-.85v-18.93c0-.26-.13-.39-.39-.39h-12.05c-.26,0-.39.13-.39.39v18.93c0,.36-.1.64-.31.85-.21.2-.49.31-.85.31h-12.21c-.36,0-.64-.1-.85-.31-.21-.21-.31-.49-.31-.85v-21.93l20.93-5.84Z"/>
  </g>
</svg>