<svg xmlns="http://www.w3.org/2000/svg" id="Layer_1" viewBox="0 0 72 72"><defs><style>.st2{fill:#fff}</style></defs><path d="M0 0h72v72H0z" style="fill:#50375e"/><path d="m31.2 35.1 13.2 3.7v13.8c0 .2 0 .4-.2.5-.1.1-.3.2-.5.2H36c-.2 0-.4 0-.5-.2-.1-.1-.2-.3-.2-.5v-12c0-.2 0-.2-.2-.2h-7.6c-.2 0-.2 0-.2.2v12c0 .2 0 .4-.2.5-.1.1-.3.2-.5.2h-7.7c-.2 0-.4 0-.5-.2-.1-.1-.2-.3-.2-.5V38.8l13.2-3.7Z" style="stroke:#fff;stroke-miterlimit:10;stroke-width:.6px;fill:none"/><path d="M44.2 18.9c-.1-.1-.3-.2-.5-.2H36c-.2 0-.4 0-.5.2-.1.1-.2.3-.2.5v12.4c0 .2 0 .2-.2.2h-7.6c-.2 0-.2 0-.2-.2V19.4c0-.2 0-.4-.2-.5-.1-.1-.3-.2-.5-.2h-7.7c-.2 0-.4 0-.5.2-.1.1-.2.3-.2.5v19.4l13.2-3.7 13.2 3.7V19.4c0-.2 0-.4-.2-.5Z" style="fill:#fff;stroke:#fff;stroke-miterlimit:10;stroke-width:.6px"/><path d="m56.6 41.1-1.9-4.5h-.8v4.6h-3.2V29.1h5.5c.8 0 1.5.2 2.1.5s1.1.8 1.4 1.4.5 1.3.5 2-.2 1.4-.6 2-.9 1-1.6 1.3v.1l2.2 4.6v.2h-3.1c-.2 0-.3 0-.3-.2Zm-2.9-9.2V34h1.6q.6 0 .9-.3c.2-.2.4-.5.4-.8s-.1-.6-.4-.8q-.3-.3-.9-.3h-1.6ZM66 41.2V29.1h3.2v12.1H66M11.6 31.8H6.2v1.6h3.4v2.7H6.2v1.8h5.4v2.7c0 .1-.1 0-.2 0H2.8V28.5h8.8v2.7Z" class="st2"/><path d="m31.2 35.1 13.2 3.7v13.8c0 .2 0 .4-.2.5-.1.1-.3.2-.5.2H36c-.2 0-.4 0-.5-.2-.1-.1-.2-.3-.2-.5v-12c0-.2 0-.2-.2-.2h-7.6c-.2 0-.2 0-.2.2v12c0 .2 0 .4-.2.5-.1.1-.3.2-.5.2h-7.7c-.2 0-.4 0-.5-.2-.1-.1-.2-.3-.2-.5V38.8l13.2-3.7Z" style="opacity:.4;fill:#fff"/></svg>